<svg xmlns="http://www.w3.org/2000/svg" xmlns:xlink="http://www.w3.org/1999/xlink" viewBox="0 0 522 390"><defs><style>.cls-1,.cls-10,.cls-19,.cls-25,.cls-28,.cls-7{fill:none;}.cls-2{isolation:isolate;}.cls-3{fill:#fc5a20;}.cls-4{clip-path:url(#clip-path);}.cls-5{fill:#c24822;}.cls-6{opacity:0.15;mix-blend-mode:multiply;}.cls-25,.cls-7{stroke:#743000;}.cls-10,.cls-19,.cls-25,.cls-28,.cls-7{stroke-linecap:round;stroke-linejoin:round;}.cls-10,.cls-7{stroke-width:0.46px;}.cls-8{fill:#9267dc;}.cls-9{fill:#0a0a0a;opacity:0.2;}.cls-10{stroke:#432f64;}.cls-11{fill:#5d428c;}.cls-12{fill:#f7afa1;}.cls-13{fill:#0f66ab;}.cls-14{fill:#ea2828;}.cls-15{fill:#ffda00;}.cls-16{fill:#432f64;}.cls-17{clip-path:url(#clip-path-2);}.cls-18{fill:#fff;}.cls-19{stroke:#5d428c;}.cls-19,.cls-28{stroke-width:0.38px;}.cls-20{fill:#cdb9ef;}.cls-21{clip-path:url(#clip-path-3);}.cls-22{fill:#3a164c;}.cls-23{clip-path:url(#clip-path-4);}.cls-24{fill:#b98379;}.cls-25{stroke-width:0.54px;}.cls-26{clip-path:url(#clip-path-5);}.cls-27{clip-path:url(#clip-path-6);}.cls-28{stroke:#b99ee8;}</style><clipPath id="clip-path"><path class="cls-1" d="M495.37,218.11S512.59,348.84,376.8,354.92,126.48,200.88,93,236.35s-96.27,6.08-70.94-81.07S180.2-30.18,339.3,51.91,495.37,218.11,495.37,218.11Z"/></clipPath><clipPath id="clip-path-2"><polygon class="cls-1" points="237.81 173.64 210.6 156.82 183.59 155.21 210.4 155.44 210.4 145.61 171.76 145.61 171.76 154.5 171.76 155.1 171.76 156.82 198.98 175.97 237.82 175.97 237.81 173.64"/></clipPath><clipPath id="clip-path-3"><polygon class="cls-1" points="343.25 131.98 232.55 131.98 220.47 63.48 331.18 63.48 343.25 131.98"/></clipPath><clipPath id="clip-path-4"><path class="cls-1" d="M341,308.56c-1.33-12.58-2.05-36.82-5.56-54.76-5.53-28.23-30.45-32.16-34.69-30.58-2.33.87-1.9,5.43-.89,13.68,1.94,15.71,18.67,43.79,30.18,74.91C333.93,311.73,338.75,310.25,341,308.56Z"/></clipPath><clipPath id="clip-path-5"><path class="cls-1" d="M378.66,130.6c-.47-8.27-6.71-12.36-15.53-15.24-8.71,8.59-17.25,18.35-39.91,31.69-9.58.85-25.89,6.91-25.89,6.91-6,2.52-.91,12.18-.91,12.18s32-3.23,36.74-5.43c1-.46,21.48-7.77,45.85-29.07C379,131.62,378.66,130.63,378.66,130.6Z"/></clipPath><clipPath id="clip-path-6"><path class="cls-1" d="M305.42,315c-.39-12.65-.17-38.2-2.34-56.34-.55-4.63-1.54-12-2.81-15.27-6.55-16.65-20.86-12.49-24.5-11.43-2.39.7-1.65,4.54-1.25,12.84.76,15.82,12.48,51.12,20,72.61C298.71,317.15,301.37,316.24,305.42,315Z"/></clipPath></defs><title>_</title><g class="cls-2"><g id="Layer_1" data-name="Layer 1"><path class="cls-3" d="M495.37,218.11S512.59,348.84,376.8,354.92,126.48,200.88,93,236.35s-96.27,6.08-70.94-81.07S180.2-30.18,339.3,51.91,495.37,218.11,495.37,218.11Z"/></g><g id="Layer_2" data-name="Layer 2"><g class="cls-4"><polygon class="cls-5" points="442.96 358.25 364.85 294.85 364.85 141.46 442.96 194.58 449.15 358.24 442.96 358.25"/><polygon class="cls-6" points="442.96 358.25 364.85 294.85 364.85 141.46 442.96 194.58 449.15 358.24 442.96 358.25"/><rect class="cls-5" x="194.25" y="193.63" width="250.82" height="7.12"/><polygon class="cls-5" points="442.96 358.25 442.96 193.05 401.6 168.56 405.4 165.1 449.17 194.58 449.17 358.25 442.96 358.25"/><path class="cls-5" d="M201.15,357.8V208.2a7.78,7.78,0,0,1,7.59-7.78l240.53-5.82-70.76-53.3H127a11.09,11.09,0,0,0-11.09,11.08V296.27l76.21,61.85h9l0,0v0h0Z"/><path class="cls-7" d="M438.35,192.71H202.7a10.35,10.35,0,0,0-10.35,10.35h0"/><path class="cls-6" d="M115.93,157V295.39a1.92,1.92,0,0,0,.71,1.48l75.51,61V205.73a21.87,21.87,0,0,0-9.38-17.95L128.83,150.3A8.22,8.22,0,0,0,115.93,157Z"/><path class="cls-8" d="M186.63,224.62V357.88H111.79V224.62S187,224.9,186.63,224.62Z"/><polygon class="cls-8" points="186.63 224.79 115.87 171.31 40.91 171.31 111.67 224.79 154.49 291.9 186.63 224.79"/><polygon class="cls-8" points="176.28 357.79 105.52 304.32 41.03 304.32 111.79 357.79 176.28 357.79"/><polygon class="cls-8" points="41.03 171.31 41.03 304.32 111.79 357.79 122.92 284.91 111.79 224.79 83.59 192.71 41.03 171.31"/><polygon class="cls-9" points="41.03 171.31 41.03 304.32 111.79 357.79 111.79 224.79 41.03 171.31"/><rect class="cls-10" x="117.49" y="232.04" width="64.17" height="34.5"/><rect class="cls-11" x="142.22" y="247.56" width="19.72" height="5.52"/><rect class="cls-10" x="117.49" y="273.78" width="64.17" height="34.5"/><rect class="cls-11" x="142.22" y="289.31" width="19.72" height="5.52"/><rect class="cls-10" x="117.49" y="316.22" width="64.17" height="34.5"/><rect class="cls-11" x="142.22" y="331.74" width="19.72" height="5.52"/><line class="cls-10" x1="185.45" y1="224.79" x2="113.22" y2="224.79"/><line class="cls-10" x1="43.65" y1="173.38" x2="111.15" y2="224.23"/><line class="cls-7" x1="192.35" y1="203.06" x2="192.35" y2="355.9"/></g><path class="cls-12" d="M340.12,302.3l1.64,13L337,332.94l-3.28.54s.66-7.37-.61-12.28a136,136,0,0,0-4.93-14.79Z"/><path class="cls-11" d="M351.1,319s-2.25-4.25-9-5.05c0,0-5.11.2-4.92,8.43.16,6.46-1.25,8.57-3.91,10.77,0,0-.18,22.88,1.2,23.41S343.19,333,343.19,333Z"/><path class="cls-11" d="M342.19,325.89a4.91,4.91,0,0,1,.15,3.64c-.66,2.17-4.9,5.31-4.9,5.31-.69,1.81-1.43,4.58-1.43,4.58-2.6,12.26-2.12,16-1.5,17.13a.79.79,0,0,0,1,.34c8.81-3.86,13.06-19.58,13.06-19.58s-.61-3.47-.76-5.48a4.46,4.46,0,0,1,2.4-4.18c2.18-3.92.89-8.66.89-8.66s-1.13-2.47-4.46-1.43C343.65,318.48,342.13,321.77,342.19,325.89Z"/><path class="cls-9" d="M342.19,325.89a4.14,4.14,0,0,1-.32,3.05,32.82,32.82,0,0,1-4.23,5.41c-.69,1.82-1.71,5.62-1.71,5.62-2.06,12.48-2,15.45-1.42,16.58a.79.79,0,0,0,1,.34c8.81-3.86,13.06-19.58,13.06-19.58s-.61-3.47-.76-5.48a4.46,4.46,0,0,1,2.4-4.18c2.18-3.92.89-8.66.89-8.66s-1.13-2.47-4.46-1.43C343.65,318.48,342.13,321.77,342.19,325.89Z"/><path class="cls-10" d="M349.91,327.32a27.15,27.15,0,0,0-7.36-1.43"/><path class="cls-12" d="M305.24,311.93l.47,9.51L299,339.87l-3,.94s1.42-9.2.58-14.2a97.58,97.58,0,0,0-2.46-10.69Z"/><path class="cls-11" d="M313.88,325.38s-1.47-4.17-8.17-5.12c0,0-5.63,1.18-5.75,8.81-.1,6.46-1.46,7.93-4.17,10.08,0,0-.68,22.86.7,23.43s9.18-23.36,9.18-23.36Z"/><path class="cls-11" d="M304.83,332.09a5,5,0,0,1,.07,3.64c-.71,2.15-5,5.2-5,5.2-.73,1.8-1.53,4.55-1.53,4.55-2.86,12.21-2.46,16-1.86,17.1a.77.77,0,0,0,1,.35c8.9-3.66,13.49-19.29,13.49-19.29s-.54-3.48-.64-5.49A4.43,4.43,0,0,1,312.8,334c2.27-3.88,1.08-8.64,1.08-8.64s-1.08-2.49-4.43-1.53C306.44,324.71,304.85,328,304.83,332.09Z"/><path class="cls-9" d="M304.83,332.09a4.17,4.17,0,0,1-.39,3,33,33,0,0,1-4.35,5.32c-.73,1.8-1.83,5.58-1.83,5.58-2.33,12.43-2.37,15.41-1.77,16.55a.77.77,0,0,0,1,.35c8.9-3.66,13.49-19.29,13.49-19.29s-.54-3.48-.64-5.49A4.43,4.43,0,0,1,312.8,334c2.27-3.88,1.08-8.64,1.08-8.64s-1.08-2.49-4.43-1.53C306.44,324.71,304.85,328,304.83,332.09Z"/><path class="cls-13" d="M160.61,121.72H179.5a0,0,0,0,1,0,0v25.5a4.25,4.25,0,0,1-4.25,4.25H164.87a4.25,4.25,0,0,1-4.25-4.25v-25.5A0,0,0,0,1,160.61,121.72Z"/><path class="cls-8" d="M173.21,106.8h2.24a.86.86,0,0,1,.86.86v20.18a0,0,0,0,1,0,0h-4a0,0,0,0,1,0,0V107.66A.86.86,0,0,1,173.21,106.8Z" transform="translate(27.82 -33.31) rotate(11.85)"/><path class="cls-14" d="M167.34,106.28h2.24a.86.86,0,0,1,.86.86v20.18a0,0,0,0,1,0,0h-4a0,0,0,0,1,0,0V107.14A.86.86,0,0,1,167.34,106.28Z" transform="translate(-10.68 17.14) rotate(-5.65)"/><path class="cls-15" d="M163.89,112.15h2.24a.86.86,0,0,1,.86.86v20.18a0,0,0,0,1,0,0h-4a0,0,0,0,1,0,0V113A.86.86,0,0,1,163.89,112.15Z" transform="translate(-21.62 36.39) rotate(-11.82)"/><path class="cls-13" d="M178.55,122.5s-9,4.14-17.07,0l-.18,10.35,10.35,4.65,6.39-2.58Z"/><polygon class="cls-16" points="210.47 155.44 210.47 145.61 171.83 145.61 171.83 155.1 210.47 155.44"/><path class="cls-16" d="M237.81,173.64l-23.9-15.87a7.84,7.84,0,0,1-3.51-6.53v-5.63H171.76v11.21L199,176h38.84Z"/><rect class="cls-11" x="177" y="148.03" width="31.05" height="5.69"/><g class="cls-17"><path class="cls-6" d="M237.81,173.64H199.38l-22.47-15.43a6.82,6.82,0,0,1-3-5.6c0-2.85-.37-6.51-2.16-7,0,0-2.2,10.7-2.2,10.89s1,3.17,1,3.17l29.18,19.15,38.62-1.1Z"/></g><polygon class="cls-18" points="156.7 217.69 156.65 208.33 87.11 182.84 87.13 192.16 120.68 217.69 156.7 217.69"/><ellipse class="cls-19" cx="188.73" cy="160.1" rx="3.97" ry="1.04"/><ellipse class="cls-19" cx="198.39" cy="160.1" rx="3.97" ry="1.04"/><ellipse class="cls-19" cx="208.05" cy="160.1" rx="3.97" ry="1.04"/><ellipse class="cls-19" cx="193.39" cy="163.38" rx="3.97" ry="1.04"/><ellipse class="cls-19" cx="203.05" cy="163.38" rx="3.97" ry="1.04"/><ellipse class="cls-19" cx="212.71" cy="163.38" rx="3.97" ry="1.04"/><ellipse class="cls-19" cx="198.05" cy="166.66" rx="3.97" ry="1.04"/><ellipse class="cls-19" cx="207.71" cy="166.66" rx="3.97" ry="1.04"/><ellipse class="cls-19" cx="217.37" cy="166.66" rx="3.97" ry="1.04"/><ellipse class="cls-19" cx="202.7" cy="169.93" rx="3.97" ry="1.04"/><ellipse class="cls-19" cx="212.37" cy="169.93" rx="3.97" ry="1.04"/><ellipse class="cls-19" cx="222.03" cy="169.93" rx="3.97" ry="1.04"/><polygon class="cls-16" points="266.7 183.99 381.94 183.99 343.64 158.9 228.41 158.9 266.7 183.99"/><polygon class="cls-19" points="341.74 160.45 242.99 160.45 271.06 180.63 370.38 180.63 341.74 160.45"/><line class="cls-19" x1="246.48" y1="162.78" x2="344.85" y2="162.78"/><line class="cls-19" x1="251.24" y1="166.27" x2="349.68" y2="166.27"/><line class="cls-19" x1="256" y1="169.76" x2="354.85" y2="169.76"/><line class="cls-19" x1="260.77" y1="173.26" x2="359.86" y2="173.26"/><line class="cls-19" x1="265.53" y1="176.75" x2="364.86" y2="176.75"/><line class="cls-19" x1="251.87" y1="160.45" x2="280.12" y2="180.5"/><line class="cls-19" x1="262.09" y1="160.45" x2="290.34" y2="180.5"/><line class="cls-19" x1="292.75" y1="160.45" x2="315.65" y2="176.66"/><line class="cls-19" x1="302.97" y1="160.45" x2="325.87" y2="176.66"/><line class="cls-19" x1="313.19" y1="160.45" x2="341.44" y2="180.5"/><line class="cls-19" x1="323.42" y1="160.45" x2="351.66" y2="180.5"/><line class="cls-19" x1="333.64" y1="160.45" x2="361.88" y2="180.5"/><path class="cls-16" d="M228.41,158.89s16.9-1,38.29,24.5H374.56v2.42H265.67Z"/><path class="cls-6" d="M228.41,158.89s19,1.73,38.29,24.5H374.56v2.42H265.67Z"/><rect class="cls-16" x="277.57" y="128.19" width="13.46" height="22.08"/><path class="cls-16" d="M280.77,144.92c-16.18,0-27.8,2.63-25.94,5.88s16.48,5.88,32.66,5.88,27.8-2.63,25.94-5.88S297,144.92,280.77,144.92Z"/><line class="cls-19" x1="272.31" y1="160.45" x2="300.56" y2="180.5"/><line class="cls-19" x1="282.53" y1="160.45" x2="305.43" y2="176.66"/><path class="cls-19" d="M312.07,150.61s-2.76,4.83-27.6,4.32-27.77-5.09-27.77-5.09"/><polyline class="cls-19" points="290.99 145.63 290.99 148.2 277.59 148.2 277.59 145.31"/><polygon class="cls-16" points="349.33 136.81 227.55 136.81 214.26 58.15 336.05 58.15 349.33 136.81"/><polygon class="cls-20" points="332.17 69.86 221.74 69.86 232.69 131.98 343.12 131.98 332.17 69.86"/><g class="cls-21"><polygon class="cls-11" points="335.54 61.4 337.03 70.05 215.41 70.05 213.9 61.4 335.54 61.4"/></g><path class="cls-11" d="M273,242c-.47-11.27,4.39-22.7,22.39-27.08,34.7-8.45,69.36-4.7,69.36-4.7l6.07-13.82L399,195.23s-5.57,55.92-68.89,52.59c0,0-28.22-.94-41.38-6L273,242"/><circle class="cls-22" cx="349.16" cy="369.19" r="9.84"/><ellipse class="cls-22" cx="388.05" cy="373.66" rx="7.85" ry="9.84"/><circle class="cls-22" cx="426.38" cy="369.19" r="9.84"/><rect class="cls-8" x="383.41" y="270.26" width="8.64" height="87.36" transform="translate(775.45 627.88) rotate(-180)"/><path class="cls-8" d="M338.88,368.17a9.84,9.84,0,0,0,11.21-7.08c1.16-4.28,3.34-8.7,7.4-9.67,8.34-2,30.37-.87,30.37-.87l-.26-8.68s-30.4-.57-33.83.69-14.49,9.39-14.89,25.61Z"/><path class="cls-8" d="M436.74,368.17a9.84,9.84,0,0,1-11.21-7.08c-1.16-4.28-3.34-8.7-7.4-9.67-8.34-2-30.36-.87-30.36-.87l.25-8.68s30.4-.57,33.84.69,14.48,9.39,14.88,25.61Z"/><path class="cls-8" d="M383.94,346.47l-6.24,23.24a2.9,2.9,0,0,0,2.8,3.66h15.39a2.91,2.91,0,0,0,2.77-3.78l-7.2-22.83Z"/><path class="cls-11" d="M383.79,271.41h7.92a1.69,1.69,0,0,1,1.69,1.69v5.75a0,0,0,0,1,0,0H382.09a0,0,0,0,1,0,0V273.1A1.69,1.69,0,0,1,383.79,271.41Z" transform="translate(775.5 550.26) rotate(-180)"/><path class="cls-15" d="M374.18,107.56c-6.69,1.3-27.5,27.63-51,39.49-9.58.85-25.89,6.91-25.89,6.91-6,2.52-.91,12.18-.91,12.18s32-3.23,36.74-5.43c.79-.36,13.67-5,31-17.35l-1.68,11.3a34.52,34.52,0,0,0,5.32,9.24,201.43,201.43,0,0,1,2.75,33c19.57,4.85,35.06,0,35.06,0L413,111.32A69.4,69.4,0,0,0,374.18,107.56Z"/><path class="cls-11" d="M341,308.56c-1.33-12.58-2.05-36.82-5.56-54.76-5.53-28.23-30.45-32.16-34.69-30.58-2.33.87-1.9,5.43-.89,13.68,1.94,15.71,18.67,43.79,30.18,74.91C334.09,311.54,338.75,310.25,341,308.56Z"/><g class="cls-23"><path class="cls-9" d="M304.66,253.69s35.22,2.46,36.24,53.15c0,0,.49-60.83,0-60.75-17,2.78-39.41-.74-39.41-.74"/></g><path class="cls-24" d="M368,65.17S365.1,77.56,365.36,79s2.59.94,4.93.83Z"/><path class="cls-12" d="M377,49.43a10.1,10.1,0,0,0-10.32,11.45c3.52,27.95,8.41,33.64,9.15,34.29,1.15,1,6.7-1.22,16.29-5.65,0,0,8.63,12.69,11.06,18L418,94.68,398.44,71.42l4.63-15.61L395,50Z"/><path class="cls-14" d="M358.43,63.93s16.91-3.36,25.84-11.82c0,0,7.36,54.33,1.09,97.86h51.51S430.45,86.24,412.68,47.5c-1.13-2.47-3.22-5.88-5.4-6.82-10.32-4.43-34.2.41-39.45,3.06C362.22,46.56,358.9,55.48,358.43,63.93Z"/><path class="cls-8" d="M359.79,247.12v14.82c0,4.31,3.43,7,7.45,8.56a55.13,55.13,0,0,0,20.55,3.85,52.87,52.87,0,0,0,21-4.22c3.93-1.6,6.95-3.81,6.95-8.06V247.12Z"/><path class="cls-11" d="M305.42,315c-.39-12.65-.17-38.17-2.34-56.31-3.41-28.57-10.28-35.94-14.63-34.68-2.39.69-12.29.57-14.4,8.61C268.57,253.45,287,296,294.5,317.45,298.71,317.15,301.37,316.21,305.42,315Z"/><path class="cls-12" d="M384.15,66.52s4.92-6.38,7-1.68a6.87,6.87,0,0,1-6,9.58"/><path class="cls-12" d="M298.46,153.84l-14.83,4.47-11.24-7.6-7.2-1.73c-.27,3.69,5.75,4.18,5.75,4.18l2.95,2.56-6,.12c-6.67,4.38-7.54,3.68-7.42,5.33a1.19,1.19,0,0,0,.85,1.17c-.36.48-.22.74-.22.74,1.52,2.95,7.87-.67,8.16-.83a13.61,13.61,0,0,1,3.38.29l-7.28,5.14a2.56,2.56,0,0,0,2.54.86c1.71-.28,6.89-3.32,6.89-3.32s5.44,2,8,2a15.9,15.9,0,0,0,4.45-.77c.24-.08,5.05-.2,9.64-.41A16.83,16.83,0,0,1,298.46,153.84Z"/><path class="cls-25" d="M261.26,161.93s5-1.65,6.56-3l4.77-.62"/><path class="cls-12" d="M284.1,160.08l-5.54-11s-2.93,2.21-.27,7.56S284.1,160.08,284.1,160.08Z"/><g class="cls-26"><path class="cls-9" d="M357.73,148.4s17-12.28,17-15.38S364.08,141.56,333,157.6a80,80,0,0,1-13.71,3.88c-8,1.55-26.14,4.66-26.14,4.66l41.15-1Z"/></g><path class="cls-10" d="M362.27,215.25a33.2,33.2,0,0,0,2.11-4.54"/><g class="cls-27"><path class="cls-9" d="M305.36,315.14s1.25-63.25-17.85-73.9c0,0,9.4,3.41,13.54,3.76l7.23,24.3L310.35,299Z"/></g><path class="cls-10" d="M323.8,247.11s-23.25.12-36.64-6.13"/><path class="cls-16" d="M392.06,196c.29-2,.55-4,.78-6C392.61,192.07,392.35,194.08,392.06,196Z"/><path class="cls-16" d="M389.79,207.18c.32-1.18.61-2.37.88-3.58C390.4,204.81,390.11,206,389.79,207.18Z"/><path class="cls-16" d="M468.81,92.12a335.74,335.74,0,0,0-75.15.23s5.4,3.21,6.34,12.92c.84,8.62,3.43,70.67-4.69,102.62,0,0-2.83,12.05-8.46,19.73-10.41,14.19-29.79,20.9-63.88,21.84-3.82.11-.47.7-2.58,5.73,9.36,3,38.38,6.95,64.11,7.66,19,.52,33.29-.18,43.56-1.64,13.73-1.95,19.46-9.17,21.34-12.45,10.69-18.71,14-40,16.83-62C472.3,138.9,468.81,92.12,468.81,92.12Z"/><path class="cls-16" d="M386.12,217.26c.51-1.07,1-2.16,1.41-3.26C387.1,215.1,386.63,216.19,386.12,217.26Z"/><path class="cls-6" d="M468.81,92.12a335.74,335.74,0,0,0-75.15.23c.47,17.14,2.82,55,0,89-2,24-5.09,40.15-22.78,55.42-10.36,8.94-30.67,10.31-50.49,10.1v8.31c9.36,3,38.38,6.95,64.11,7.66,19,.52,33.29-.18,43.56-1.64,13.73-1.95,19.46-9.17,21.34-12.45,10.69-18.71,14-40,16.83-62C472.3,138.9,468.81,92.12,468.81,92.12Z"/><path class="cls-16" d="M389.9,228.71c5.62-7.68,8.6-19.69,8.6-19.69,8.12-32,5.7-96.93,4.87-105.55a12.15,12.15,0,0,0-9.71-11.12c.47,17.14,2.82,55,0,89-2,24-5.09,40.15-22.78,55.42-10.36,8.94-30.67,10.31-50.49,10.1v8.31C364.79,257.2,378.32,244.5,389.9,228.71Z"/><path class="cls-7" d="M323.61,147.31a17.33,17.33,0,0,1,3.86,1"/><line class="cls-25" x1="277.92" y1="154.32" x2="282.32" y2="157.34"/><polygon class="cls-18" points="279.98 103.78 259.09 103.78 255.58 83.86 276.47 83.86 279.98 103.78"/><polygon class="cls-18" points="255.66 129.74 235.47 129.74 225.13 72.99 245.33 72.99 255.66 129.74"/><polygon class="cls-18" points="305.66 103.78 284.77 103.78 281.25 83.86 302.15 83.86 305.66 103.78"/><polygon class="cls-18" points="331.34 103.78 310.44 103.78 306.93 83.86 327.82 83.86 331.34 103.78"/><polygon class="cls-18" points="284.68 129.09 263.79 129.09 260.28 109.17 281.17 109.17 284.68 129.09"/><polygon class="cls-18" points="310.36 129.09 289.47 129.09 285.95 109.17 306.85 109.17 310.36 129.09"/><polygon class="cls-18" points="336.04 129.09 315.14 129.09 311.63 109.17 332.52 109.17 336.04 129.09"/><ellipse class="cls-11" cx="257.65" cy="76.44" rx="4.09" ry="4.9" transform="translate(14.73 191.4) rotate(-41.85)"/><path class="cls-20" d="M297.25,91.36c.57-.38,1.14-.77,1.69-1.19A8.51,8.51,0,0,0,293,86.82c.22.78.44,1.57.68,2.34A5.93,5.93,0,0,1,297.25,91.36Z"/><path class="cls-11" d="M292,98.09A6.1,6.1,0,0,1,289,94a3.92,3.92,0,0,1,3.57-4.84c-.23-.76-.44-1.52-.66-2.29-3.5.3-5.76,3.38-5.11,7.13a8.93,8.93,0,0,0,4.46,6.16A21,21,0,0,0,292,98.09Z"/><path class="cls-20" d="M295.22,98.77a4.62,4.62,0,0,1-.65.06,4.94,4.94,0,0,1-1.66-.32c-.21.69-.46,1.37-.72,2a7.56,7.56,0,0,0,2.77.55,6.21,6.21,0,0,0,1.38-.16Z"/><path class="cls-20" d="M298.46,95.25a3.83,3.83,0,0,1-2.23,3.22l1.11,2.16a5.65,5.65,0,0,0,3.39-5C300,95.47,299.22,95.36,298.46,95.25Z"/><path class="cls-11" d="M298.45,94.21c.76.11,1.51.22,2.26.36,0-.21,0-.41-.07-.62A8.44,8.44,0,0,0,299.52,91c-.55.41-1.12.81-1.7,1.19a5.58,5.58,0,0,1,.61,1.73A2.46,2.46,0,0,1,298.45,94.21Z"/><path class="cls-11" d="M269.7,86.1H257.91l.32,2.07h12.4C270.34,87.47,270,86.78,269.7,86.1Z"/><path class="cls-11" d="M266.92,91.1h-8l.32,2.07h8.5C267.52,92.47,267.23,91.78,266.92,91.1Z"/><path class="cls-11" d="M273,96.1H260l.32,2.07h13.53C273.59,97.47,273.31,96.79,273,96.1Z"/><path class="cls-20" d="M270.2,88.17h5.23L275,86.1h-5.46C269.74,86.79,270,87.47,270.2,88.17Z"/><path class="cls-20" d="M273.51,98.17h4l-.45-2.07h-4.22C273.05,96.79,273.3,97.48,273.51,98.17Z"/><path class="cls-11" d="M324.43,98H311.38l.32,2.07h13.53C325,99.37,324.71,98.68,324.43,98Z"/><path class="cls-20" d="M324.92,100.07h4L328.46,98h-4.23C324.46,98.69,324.7,99.38,324.92,100.07Z"/><path class="cls-20" d="M267.47,93.17h9L276,91.1h-9.23C267,91.79,267.26,92.48,267.47,93.17Z"/><path class="cls-11" d="M300.62,114.91H288.83l.32,2.07h12.4C301.26,116.28,300.94,115.59,300.62,114.91Z"/><path class="cls-20" d="M301.12,117h5.23l-.44-2.07h-5.47C300.67,115.6,300.91,116.28,301.12,117Z"/><path class="cls-11" d="M298.1,122.11h-8l.32,2.07h8.5A18.67,18.67,0,0,0,298.1,122.11Z"/><path class="cls-20" d="M298.65,124.18h9l-.44-2.07H298C298.2,122.8,298.44,123.48,298.65,124.18Z"/><polyline class="cls-19" points="263.77 116.29 267.57 111.97 272.4 116.63 276.54 111.97 280.33 116.8"/><polyline class="cls-19" points="264.98 124.05 268.05 121.98 272.62 124.22 276.54 119.56"/><circle class="cls-11" cx="267.57" cy="111.97" r="0.69"/><circle class="cls-11" cx="272.4" cy="116.29" r="0.69"/><circle class="cls-11" cx="276.54" cy="111.97" r="0.69"/><circle class="cls-11" cx="272.4" cy="123.88" r="0.69"/><circle class="cls-11" cx="267.91" cy="121.98" r="0.69"/><circle class="cls-11" cx="276.54" cy="119.22" r="0.69"/><ellipse class="cls-19" cx="324.15" cy="119.39" rx="4.13" ry="5.25" transform="translate(19.75 282.69) rotate(-48.43)"/><polyline class="cls-19" points="323.03 114.73 324.32 118.53 328.63 118.87"/><line class="cls-7" x1="129.91" y1="150.87" x2="183.99" y2="188.65"/><line class="cls-19" x1="290.6" y1="136.81" x2="278.18" y2="136.81"/><line class="cls-19" x1="228.88" y1="77.9" x2="243.89" y2="77.9"/><line class="cls-19" x1="229.27" y1="80.75" x2="244.28" y2="80.75"/><line class="cls-19" x1="229.79" y1="83.6" x2="244.8" y2="83.6"/><polygon class="cls-9" points="156.7 217.69 156.65 208.33 87.11 182.84 87.13 192.16 120.68 217.69 156.7 217.69"/><polygon class="cls-18" points="156.7 208.38 122.92 182.84 87.13 182.84 120.91 208.38 156.7 208.38"/><line class="cls-28" x1="120.81" y1="209.06" x2="120.81" y2="217"/><line class="cls-28" x1="120.86" y1="210.27" x2="145.18" y2="210.27"/><line class="cls-28" x1="130.86" y1="214.41" x2="155.18" y2="214.41"/><line class="cls-28" x1="95.67" y1="193.02" x2="107.92" y2="201.99"/><path class="cls-28" d="M100.85,200.61c1.52,1.14,12.9,9.94,14.42,11.08"/><path class="cls-10" d="M312.51,333.69a26.55,26.55,0,0,0-7.33-1.6"/><line class="cls-7" x1="364.31" y1="143.23" x2="370.65" y2="138.07"/><ellipse class="cls-3" cx="464.79" cy="44.34" rx="22.66" ry="22.28" transform="translate(-2.11 45.95) rotate(-5.65)"/><ellipse class="cls-3" cx="121.4" cy="283.66" rx="13.52" ry="13.45"/><path class="cls-3" d="M46.36,260.24c17.64,10.51,37.47,2.2,51.72-10,2.84-2.43-1.28-6.51-4.1-4.1-12.24,10.47-29.43,18.17-44.69,9.08-3.22-1.92-6.14,3.09-2.93,5Z"/><path class="cls-3" d="M105.58,243.48v-.57a2.9,2.9,0,1,0-5.8,0v.57a2.9,2.9,0,1,0,5.8,0Z"/><path class="cls-3" d="M111.92,244.65c3.73,0,3.73-5.8,0-5.8s-3.74,5.8,0,5.8Z"/><path class="cls-3" d="M120.58,247.54c3.73,0,3.73-5.8,0-5.8s-3.74,5.8,0,5.8Z"/><path class="cls-3" d="M147.71,262.55c3.73,0,3.74-5.8,0-5.8s-3.73,5.8,0,5.8Z"/><path class="cls-3" d="M152.58,268l23.65,16.21c3.08,2.12,6-2.9,2.92-5l-23.64-16.22c-3.08-2.11-6,2.91-2.93,5Z"/><path class="cls-3" d="M185.24,282.73h-.57a2.9,2.9,0,1,0,0,5.8h.57a2.9,2.9,0,0,0,0-5.8Z"/><path class="cls-3" d="M493.1,182.71a123.2,123.2,0,0,1-1,98.82c-1.53,3.37,3.46,6.32,5,2.93a129.6,129.6,0,0,0,1-104.68c-1.48-3.42-6.47-.47-5,2.93Z"/><path class="cls-3" d="M486.05,170.17c3.73,0,3.74-5.8,0-5.8s-3.74,5.8,0,5.8Z"/><path class="cls-3" d="M103.06,46.92A177,177,0,0,1,158.9,24.69c3.65-.78,2.11-6.37-1.54-5.59a181.74,181.74,0,0,0-57.22,22.81c-3.18,1.94-.27,7,2.92,5Z"/><path class="cls-3" d="M176.59,16.58V16a2.9,2.9,0,1,0-5.79,0v.58a2.9,2.9,0,1,0,5.79,0Z"/></g></g></svg>